<mxfile host="app.diagrams.net" modified="2023-10-25T00:50:29.728Z" agent="Mozilla/5.0 (Windows NT 10.0; Win64; x64) AppleWebKit/537.36 (KHTML, like Gecko) Chrome/109.0.0.0 Safari/537.36" etag="u2UmBNLvUtw4Er6_NazS" version="22.0.6" type="github">
  <diagram name="Page-1" id="m8FpXnwJq9hthko-ZY34">
    <mxGraphModel dx="1122" dy="687" grid="1" gridSize="10" guides="1" tooltips="1" connect="1" arrows="1" fold="1" page="1" pageScale="1" pageWidth="850" pageHeight="1100" math="0" shadow="0">
      <root>
        <mxCell id="0" />
        <mxCell id="1" parent="0" />
        <mxCell id="pP3kSVdpq1LD9oC8xg7h-3" value="" style="edgeStyle=orthogonalEdgeStyle;rounded=0;orthogonalLoop=1;jettySize=auto;html=1;" edge="1" parent="1" source="pP3kSVdpq1LD9oC8xg7h-1" target="pP3kSVdpq1LD9oC8xg7h-2">
          <mxGeometry relative="1" as="geometry" />
        </mxCell>
        <mxCell id="pP3kSVdpq1LD9oC8xg7h-1" value="MULAI" style="ellipse;whiteSpace=wrap;html=1;fontStyle=1" vertex="1" parent="1">
          <mxGeometry x="365" y="20" width="120" height="80" as="geometry" />
        </mxCell>
        <mxCell id="pP3kSVdpq1LD9oC8xg7h-5" value="" style="edgeStyle=orthogonalEdgeStyle;rounded=0;orthogonalLoop=1;jettySize=auto;html=1;" edge="1" parent="1" source="pP3kSVdpq1LD9oC8xg7h-2">
          <mxGeometry relative="1" as="geometry">
            <mxPoint x="425" y="330" as="targetPoint" />
          </mxGeometry>
        </mxCell>
        <mxCell id="pP3kSVdpq1LD9oC8xg7h-2" value="MASUKAN&lt;br&gt;NILAI JARI-JARI&lt;br&gt;(r)" style="shape=parallelogram;perimeter=parallelogramPerimeter;whiteSpace=wrap;html=1;fixedSize=1;fontStyle=1" vertex="1" parent="1">
          <mxGeometry x="345" y="180" width="160" height="60" as="geometry" />
        </mxCell>
        <mxCell id="pP3kSVdpq1LD9oC8xg7h-8" value="" style="edgeStyle=orthogonalEdgeStyle;rounded=0;orthogonalLoop=1;jettySize=auto;html=1;" edge="1" parent="1" target="pP3kSVdpq1LD9oC8xg7h-7">
          <mxGeometry relative="1" as="geometry">
            <mxPoint x="425" y="390" as="sourcePoint" />
          </mxGeometry>
        </mxCell>
        <mxCell id="pP3kSVdpq1LD9oC8xg7h-7" value="&lt;b&gt;PILIHAN LUAS /&lt;br&gt;KELLING&lt;br&gt;&lt;/b&gt;" style="rhombus;whiteSpace=wrap;html=1;" vertex="1" parent="1">
          <mxGeometry x="335" y="490" width="180" height="180" as="geometry" />
        </mxCell>
        <mxCell id="pP3kSVdpq1LD9oC8xg7h-9" value="" style="endArrow=none;html=1;rounded=0;exitX=1;exitY=0.5;exitDx=0;exitDy=0;" edge="1" parent="1" source="pP3kSVdpq1LD9oC8xg7h-7">
          <mxGeometry width="50" height="50" relative="1" as="geometry">
            <mxPoint x="590" y="640" as="sourcePoint" />
            <mxPoint x="640" y="580" as="targetPoint" />
          </mxGeometry>
        </mxCell>
        <mxCell id="pP3kSVdpq1LD9oC8xg7h-10" value="" style="endArrow=classic;html=1;rounded=0;" edge="1" parent="1">
          <mxGeometry width="50" height="50" relative="1" as="geometry">
            <mxPoint x="639" y="580" as="sourcePoint" />
            <mxPoint x="639.37" y="650" as="targetPoint" />
            <Array as="points">
              <mxPoint x="639" y="590" />
            </Array>
          </mxGeometry>
        </mxCell>
        <mxCell id="pP3kSVdpq1LD9oC8xg7h-11" value="" style="endArrow=none;html=1;rounded=0;entryX=0;entryY=0.5;entryDx=0;entryDy=0;" edge="1" parent="1" target="pP3kSVdpq1LD9oC8xg7h-7">
          <mxGeometry width="50" height="50" relative="1" as="geometry">
            <mxPoint x="200" y="580" as="sourcePoint" />
            <mxPoint x="330" y="600" as="targetPoint" />
          </mxGeometry>
        </mxCell>
        <mxCell id="pP3kSVdpq1LD9oC8xg7h-55" value="" style="endArrow=classic;html=1;rounded=0;" edge="1" parent="1">
          <mxGeometry width="50" height="50" relative="1" as="geometry">
            <mxPoint x="199.38" y="580" as="sourcePoint" />
            <mxPoint x="199.38" y="660" as="targetPoint" />
          </mxGeometry>
        </mxCell>
        <mxCell id="pP3kSVdpq1LD9oC8xg7h-59" value="" style="edgeStyle=orthogonalEdgeStyle;rounded=0;orthogonalLoop=1;jettySize=auto;html=1;" edge="1" parent="1" source="pP3kSVdpq1LD9oC8xg7h-56" target="pP3kSVdpq1LD9oC8xg7h-58">
          <mxGeometry relative="1" as="geometry" />
        </mxCell>
        <mxCell id="pP3kSVdpq1LD9oC8xg7h-56" value="LUAS" style="rounded=0;whiteSpace=wrap;html=1;fontStyle=1" vertex="1" parent="1">
          <mxGeometry x="130" y="660" width="140" height="60" as="geometry" />
        </mxCell>
        <mxCell id="pP3kSVdpq1LD9oC8xg7h-61" value="" style="edgeStyle=orthogonalEdgeStyle;rounded=0;orthogonalLoop=1;jettySize=auto;html=1;" edge="1" parent="1" source="pP3kSVdpq1LD9oC8xg7h-57" target="pP3kSVdpq1LD9oC8xg7h-60">
          <mxGeometry relative="1" as="geometry" />
        </mxCell>
        <mxCell id="pP3kSVdpq1LD9oC8xg7h-57" value="KELILING" style="rounded=0;whiteSpace=wrap;html=1;fontStyle=1" vertex="1" parent="1">
          <mxGeometry x="570" y="650" width="140" height="60" as="geometry" />
        </mxCell>
        <mxCell id="pP3kSVdpq1LD9oC8xg7h-58" value="TAMPIL&lt;br&gt;LUAS LINGKARAN" style="shape=parallelogram;perimeter=parallelogramPerimeter;whiteSpace=wrap;html=1;fixedSize=1;rounded=0;fontStyle=1" vertex="1" parent="1">
          <mxGeometry x="120" y="790" width="160" height="60" as="geometry" />
        </mxCell>
        <mxCell id="pP3kSVdpq1LD9oC8xg7h-60" value="TAMPIL&lt;br&gt;KELILING LINGKARAN" style="shape=parallelogram;perimeter=parallelogramPerimeter;whiteSpace=wrap;html=1;fixedSize=1;rounded=0;fontStyle=1" vertex="1" parent="1">
          <mxGeometry x="560" y="790" width="160" height="60" as="geometry" />
        </mxCell>
        <mxCell id="pP3kSVdpq1LD9oC8xg7h-62" value="" style="endArrow=none;html=1;rounded=0;entryX=0.5;entryY=1;entryDx=0;entryDy=0;" edge="1" parent="1" target="pP3kSVdpq1LD9oC8xg7h-58">
          <mxGeometry width="50" height="50" relative="1" as="geometry">
            <mxPoint x="200" y="960" as="sourcePoint" />
            <mxPoint x="220" y="920" as="targetPoint" />
          </mxGeometry>
        </mxCell>
        <mxCell id="pP3kSVdpq1LD9oC8xg7h-63" value="" style="endArrow=none;html=1;rounded=0;entryX=0.5;entryY=1;entryDx=0;entryDy=0;" edge="1" parent="1" target="pP3kSVdpq1LD9oC8xg7h-60">
          <mxGeometry width="50" height="50" relative="1" as="geometry">
            <mxPoint x="640" y="960" as="sourcePoint" />
            <mxPoint x="660" y="930" as="targetPoint" />
          </mxGeometry>
        </mxCell>
        <mxCell id="pP3kSVdpq1LD9oC8xg7h-64" value="" style="endArrow=none;html=1;rounded=0;" edge="1" parent="1">
          <mxGeometry width="50" height="50" relative="1" as="geometry">
            <mxPoint x="200" y="960" as="sourcePoint" />
            <mxPoint x="640" y="960" as="targetPoint" />
          </mxGeometry>
        </mxCell>
        <mxCell id="pP3kSVdpq1LD9oC8xg7h-67" value="" style="endArrow=classic;html=1;rounded=0;entryX=0.5;entryY=0;entryDx=0;entryDy=0;" edge="1" parent="1" target="pP3kSVdpq1LD9oC8xg7h-68">
          <mxGeometry width="50" height="50" relative="1" as="geometry">
            <mxPoint x="425" y="960" as="sourcePoint" />
            <mxPoint x="430" y="1010" as="targetPoint" />
          </mxGeometry>
        </mxCell>
        <mxCell id="pP3kSVdpq1LD9oC8xg7h-68" value="SELESAI" style="ellipse;whiteSpace=wrap;html=1;fontStyle=1" vertex="1" parent="1">
          <mxGeometry x="365" y="1020" width="120" height="80" as="geometry" />
        </mxCell>
        <mxCell id="pP3kSVdpq1LD9oC8xg7h-70" value="Phi = 3,14" style="shape=parallelogram;perimeter=parallelogramPerimeter;whiteSpace=wrap;html=1;fixedSize=1;fontStyle=1" vertex="1" parent="1">
          <mxGeometry x="345" y="330" width="160" height="60" as="geometry" />
        </mxCell>
      </root>
    </mxGraphModel>
  </diagram>
</mxfile>
